<svg xmlns="http://www.w3.org/2000/svg" width="29.313" height="32.264" viewBox="0 0 29.313 32.264">
  <g id="icone-linkedin" transform="translate(-6.959)">
    <path id="Path_113" data-name="Path 113" d="M8.551,35.817a1.59,1.59,0,0,0-1.59,1.59V58.9a1.59,1.59,0,0,0,3.179,0V37.407A1.59,1.59,0,0,0,8.551,35.817Z" transform="translate(-0.002 -28.225)" fill="#fff"/>
    <path id="Path_114" data-name="Path 114" d="M62.1,115.054a1.59,1.59,0,0,0-1.59,1.59v4.7a1.59,1.59,0,0,0,3.179,0v-4.7A1.59,1.59,0,0,0,62.1,115.054Z" transform="translate(-42.201 -90.668)" fill="#fff"/>
    <path id="Path_115" data-name="Path 115" d="M69.492,37.528a8.94,8.94,0,0,0-5.8,2.133V37.407a1.59,1.59,0,0,0-3.179,0v9.1h0a1.59,1.59,0,0,0,3.179,0,5.8,5.8,0,1,1,11.6,0V58.9a1.59,1.59,0,1,0,3.179,0V46.509A8.991,8.991,0,0,0,69.492,37.528Z" transform="translate(-42.201 -28.225)" fill="#fff"/>
    <path id="Path_116" data-name="Path 116" d="M8.549,3.179a1.611,1.611,0,0,0,1.125-.464,1.594,1.594,0,0,0,0-2.249,1.589,1.589,0,0,0-2.249,0,1.589,1.589,0,0,0,0,2.249A1.606,1.606,0,0,0,8.549,3.179Z" transform="translate(0 0)" fill="#fff"/>
  </g>
</svg>
