<svg xmlns="http://www.w3.org/2000/svg" width="29.313" height="29.906" viewBox="0 0 29.313 29.906">
  <g id="icone-whatsapp" transform="translate(-2.184)">
    <path id="Path_111" data-name="Path 111" d="M16.84,0A14.673,14.673,0,0,0,2.184,14.656,16.414,16.414,0,0,0,4.02,21.733,1.018,1.018,0,0,0,5.831,20.8a14.316,14.316,0,0,1-1.611-6.146A12.62,12.62,0,1,1,16.84,27.276a13.082,13.082,0,0,1-5.688-1.348,1.017,1.017,0,0,0-.768-.061L3.97,27.918a1.018,1.018,0,1,0,.62,1.94l6.027-1.926a14.986,14.986,0,0,0,6.223,1.381A14.656,14.656,0,1,0,16.84,0Z" fill="#fff"/>
    <path id="Path_112" data-name="Path 112" d="M58.051,61.12a1.018,1.018,0,1,0,1.241,1.615,2.219,2.219,0,0,0,1.02-2.016,5.5,5.5,0,0,0-1.277-2.266,5.053,5.053,0,0,0-1.988-1.7,2.2,2.2,0,0,0-1.5.072,3.592,3.592,0,0,0-2.116,1.985,3.455,3.455,0,0,0,.178,2.788,18.282,18.282,0,0,0,4.222,5.759l.021.019a18.286,18.286,0,0,0,6.2,3.57,4.018,4.018,0,0,0,1.3.23,3.154,3.154,0,0,0,1.485-.361,3.593,3.593,0,0,0,1.74-2.324,2.2,2.2,0,0,0-.094-1.5,5.05,5.05,0,0,0-1.91-1.791,5.494,5.494,0,0,0-2.4-1.018h0a2.217,2.217,0,0,0-1.887,1.236,1.018,1.018,0,1,0,1.742,1.055,1.871,1.871,0,0,1,.164-.241,7.952,7.952,0,0,1,2.429,1.6.245.245,0,0,1-.011.119,1.673,1.673,0,0,1-.726,1.063,1.522,1.522,0,0,1-1.178.007,16.264,16.264,0,0,1-5.5-3.161h0a16.253,16.253,0,0,1-3.759-5.131,1.522,1.522,0,0,1-.124-1.172,1.671,1.671,0,0,1,.975-.839.238.238,0,0,1,.118-.024,7.947,7.947,0,0,1,1.855,2.237A1.906,1.906,0,0,1,58.051,61.12Z" transform="translate(-44.101 -48.963)" fill="#fff"/>
  </g>
</svg>
