<svg xmlns="http://www.w3.org/2000/svg" width="210.214" height="245.91" viewBox="0 0 210.214 245.91">
  <g id="binary-code" transform="translate(-18.98)">
    <g id="Group_2" data-name="Group 2" transform="translate(18.98)">
      <path id="Path_38" data-name="Path 38" d="M36.851,157.754a7.053,7.053,0,0,0,14.106,0V102.622a7.053,7.053,0,0,0-12.04-4.987L21.046,115.506a7.052,7.052,0,0,0,9.974,9.974l5.831-5.831Z" transform="translate(-18.98 -5.698)" fill="#5f55af"/>
      <path id="Path_39" data-name="Path 39" d="M81.516,29.911l5.831-5.831V62.185a7.053,7.053,0,0,0,14.106,0V7.053a7.053,7.053,0,0,0-12.04-4.987L71.542,19.937a7.052,7.052,0,0,0,9.974,9.974Z" transform="translate(-21.991 0)" fill="#5f55af"/>
      <path id="Path_40" data-name="Path 40" d="M166.064,96.106a7.054,7.054,0,0,0-7.686,1.529l-17.871,17.871a7.052,7.052,0,0,0,9.974,9.974l5.831-5.831v38.105a7.053,7.053,0,1,0,14.106,0V102.622A7.053,7.053,0,0,0,166.064,96.106Z" transform="translate(-26.102 -5.698)" fill="#5f55af"/>
      <path id="Path_41" data-name="Path 41" d="M133.466,188.411a7.054,7.054,0,0,0-7.686,1.529l-17.871,17.871a7.052,7.052,0,1,0,9.974,9.974l5.831-5.831v20.874a7.053,7.053,0,0,0,14.106,0v-37.9A7.052,7.052,0,0,0,133.466,188.411Z" transform="translate(-24.159 -11.201)" fill="#5f55af"/>
      <path id="Path_42" data-name="Path 42" d="M119.409,140.567V119.809A24.267,24.267,0,0,0,95.169,95.57h-.347a24.267,24.267,0,0,0-24.239,24.239v20.758a24.267,24.267,0,0,0,24.239,24.239h.347A24.267,24.267,0,0,0,119.409,140.567Zm-14.106,0A10.145,10.145,0,0,1,95.169,150.7h-.347a10.145,10.145,0,0,1-10.134-10.134V119.809a10.145,10.145,0,0,1,10.134-10.134h.347A10.145,10.145,0,0,1,105.3,119.809Z" transform="translate(-22.057 -5.698)" fill="#5f55af"/>
      <path id="Path_43" data-name="Path 43" d="M215.186,95.569h-.347A24.267,24.267,0,0,0,190.6,119.808v20.758a24.267,24.267,0,0,0,24.239,24.239h.347a24.267,24.267,0,0,0,24.239-24.239V119.808A24.267,24.267,0,0,0,215.186,95.569Zm10.134,45A10.145,10.145,0,0,1,215.186,150.7h-.347a10.145,10.145,0,0,1-10.134-10.134V119.809a10.145,10.145,0,0,1,10.134-10.134h.347a10.145,10.145,0,0,1,10.134,10.134Z" transform="translate(-29.212 -5.698)" fill="#5f55af"/>
      <path id="Path_44" data-name="Path 44" d="M145.665,0h-.347a24.267,24.267,0,0,0-24.239,24.239V45a24.267,24.267,0,0,0,24.239,24.239h.347a7.053,7.053,0,0,0,0-14.106h-.347A10.145,10.145,0,0,1,135.185,45V24.239a10.145,10.145,0,0,1,10.134-10.134h.347A10.145,10.145,0,0,1,155.8,24.239a7.053,7.053,0,1,0,14.106,0A24.265,24.265,0,0,0,145.665,0Z" transform="translate(-25.067)" fill="#5f55af"/>
      <path id="Path_45" data-name="Path 45" d="M215.186,0h-.347A24.267,24.267,0,0,0,190.6,24.239V45a24.267,24.267,0,0,0,24.239,24.239h.347A24.267,24.267,0,0,0,239.426,45V24.239A24.267,24.267,0,0,0,215.186,0ZM225.32,45a10.145,10.145,0,0,1-10.134,10.134h-.347A10.145,10.145,0,0,1,204.706,45V24.239a10.145,10.145,0,0,1,10.134-10.134h.347A10.145,10.145,0,0,1,225.32,24.239Z" transform="translate(-29.212)" fill="#5f55af"/>
      <path id="Path_46" data-name="Path 46" d="M60.123,187.874h-.347a24.267,24.267,0,0,0-24.239,24.239v20.758a24.267,24.267,0,0,0,24.239,24.239h.347a24.267,24.267,0,0,0,24.239-24.239V212.113A24.266,24.266,0,0,0,60.123,187.874Zm10.135,45a10.145,10.145,0,0,1-10.134,10.134h-.347a10.145,10.145,0,0,1-10.134-10.134V212.113A10.145,10.145,0,0,1,59.777,201.98h.347a10.145,10.145,0,0,1,10.134,10.134Z" transform="translate(-19.967 -11.2)" fill="#5f55af"/>
    </g>
  </g>
</svg>
