<svg id="code" xmlns="http://www.w3.org/2000/svg" width="233.056" height="233.056" viewBox="0 0 233.056 233.056">
  <path id="Path_47" data-name="Path 47" d="M177.978,43.656v109.7l-40.967,27.311H6.828A6.761,6.761,0,0,1,0,173.839V43.656L13.656,30H164.323Z" transform="translate(0 -16.344)" fill="#edf5ff"/>
  <path id="Path_48" data-name="Path 48" d="M284.762,43.656v109.7l-40.967,27.311H196V30h75.106Z" transform="translate(-106.783 -16.344)" fill="#d7e9ff"/>
  <path id="Path_49" data-name="Path 49" d="M192.946,160.056,179.7,199.794l-.41,1.229a6.779,6.779,0,1,1-12.835-4.37L179.7,156.916l.41-1.229a6.779,6.779,0,1,1,12.835,4.37Z" transform="translate(-90.483 -82.31)" fill="#979fef"/>
  <path id="Path_50" data-name="Path 50" d="M91.045,204.248,63.734,183.765a6.821,6.821,0,0,1,0-10.922l27.311-20.483a6.825,6.825,0,1,1,8.188,10.922L79.21,178.3l20.023,15.023a6.825,6.825,0,1,1-8.188,10.922Z" transform="translate(-33.234 -82.259)" fill="#979fef"/>
  <path id="Path_51" data-name="Path 51" d="M242.365,202.894a6.816,6.816,0,0,1,1.367-9.555l20.023-15.023-20.023-15.023a6.825,6.825,0,0,1,8.188-10.922l27.311,20.483a6.821,6.821,0,0,1,0,10.922L251.92,204.26A6.818,6.818,0,0,1,242.365,202.894Z" transform="translate(-131.298 -82.272)" fill="#737ee6"/>
  <path id="Path_52" data-name="Path 52" d="M209.245,160.056,196,199.794V156.916l.41-1.229a6.779,6.779,0,1,1,12.835,4.37Z" transform="translate(-106.783 -82.311)" fill="#737ee6"/>
  <g id="Group_3" data-name="Group 3" transform="translate(110.083 109.7)">
    <path id="Path_53" data-name="Path 53" d="M361.374,319.929l-17.726-9.968a41.65,41.65,0,0,0,0-15.021l17.725-9.969a7.064,7.064,0,0,0,2.595-9.422L357.14,263.8a7.064,7.064,0,0,0-9.422-2.595l-17.862,10.242a44.048,44.048,0,0,0-13.291-7.511V247.828A6.761,6.761,0,0,0,309.736,241H296.081a6.761,6.761,0,0,0-6.828,6.828v16.114a41.781,41.781,0,0,0-12.836,7.511L258.938,261.21a7.064,7.064,0,0,0-9.422,2.595l-6.828,11.744a7.064,7.064,0,0,0,2.595,9.422l17.343,9.969a41.652,41.652,0,0,0,0,15.021l-17.342,9.968a7.064,7.064,0,0,0-2.595,9.422l6.828,11.744a7.063,7.063,0,0,0,9.422,2.595l17.479-10.242a41.765,41.765,0,0,0,12.836,7.511v16.569a6.761,6.761,0,0,0,6.828,6.828h13.656a6.761,6.761,0,0,0,6.828-6.828V340.959a44.03,44.03,0,0,0,13.292-7.511l17.862,10.242a7.064,7.064,0,0,0,9.422-2.595l6.828-11.744A7.064,7.064,0,0,0,361.374,319.929Zm-58.465,3a20.483,20.483,0,1,1,20.483-20.483A20.456,20.456,0,0,1,302.909,322.934Z" transform="translate(-241.842 -241)" fill="#979fef"/>
  </g>
  <path id="Path_54" data-name="Path 54" d="M437.06,329.351,430.232,341.1a7.063,7.063,0,0,1-9.422,2.595l-17.862-10.242a44.03,44.03,0,0,1-13.291,7.511v16.569a6.761,6.761,0,0,1-6.828,6.828H376V322.934a20.483,20.483,0,1,0,0-40.967V241h6.828a6.761,6.761,0,0,1,6.828,6.828v16.114a44.038,44.038,0,0,1,13.291,7.511L420.81,261.21a7.064,7.064,0,0,1,9.422,2.595l6.828,11.744a7.064,7.064,0,0,1-2.595,9.422l-17.726,9.969a41.648,41.648,0,0,1,0,15.021l17.725,9.968A7.064,7.064,0,0,1,437.06,329.351Z" transform="translate(-204.85 -131.3)" fill="#737ee6"/>
  <path id="Path_55" data-name="Path 55" d="M284.656,0h34.139a6.828,6.828,0,0,1,6.828,6.828V27.311H284.656L271,13.229Z" transform="translate(-147.644)" fill="#737ee6"/>
  <path id="Path_56" data-name="Path 56" d="M137.011,0V27.311H0V6.828A6.761,6.761,0,0,1,6.828,0Z" fill="#47568c"/>
  <rect id="Rectangle_6" data-name="Rectangle 6" width="48" height="27" transform="translate(89)" fill="#2c3b73"/>
</svg>
