<svg xmlns="http://www.w3.org/2000/svg" width="80.51" height="76.374" viewBox="0 0 80.51 76.374">
  <g id="contact" transform="translate(0 -13.147)">
    <path id="Path_149" data-name="Path 149" d="M178.414,28.169V58.215a2.146,2.146,0,0,1-2.145,2.145H118.324a2.145,2.145,0,0,1-2.145-2.145V15.292a2.145,2.145,0,0,1,2.145-2.145h57.944a2.145,2.145,0,0,1,2.145,2.145V28.169Z" transform="translate(-97.904)" fill="#ff5364"/>
    <path id="Path_150" data-name="Path 150" d="M180.75,13.887,152.239,38.234a3.209,3.209,0,0,1-4.141,0L119.587,13.887a2.123,2.123,0,0,1,1.609-.74H179.14A2.125,2.125,0,0,1,180.75,13.887Z" transform="translate(-100.776)" fill="#fb7b76"/>
    <path id="Path_151" data-name="Path 151" d="M181.706,173.6a2.117,2.117,0,0,1-1.389.515H122.379a2.122,2.122,0,0,1-1.389-.515l23.772-25.463,4.519,3.852a3.209,3.209,0,0,0,4.141,0l4.507-3.852Z" transform="translate(-101.958 -113.757)" fill="#df4d60"/>
    <path id="Path_152" data-name="Path 152" d="M17.57,109.165l3.985,5.978a2.731,2.731,0,0,1-.6,3.671l-4.907,3.817a2.72,2.72,0,0,0-.719,3.472c1.44,2.586,2.8,5.641,9.563,12.4s9.819,8.122,12.4,9.562a2.717,2.717,0,0,0,3.472-.719l3.816-4.906a2.733,2.733,0,0,1,3.673-.6l6.167,4.112,6.943,4.626a2.731,2.731,0,0,1,.833,3.678l-3.288,5.48a6.687,6.687,0,0,1-3.935,3.041c-5.464,1.5-17.516,1.805-36.834-17.516S-.881,113.9.619,108.434a6.687,6.687,0,0,1,3.04-3.935l5.477-3.288a2.733,2.733,0,0,1,3.678.833Z" transform="translate(0 -73.884)" fill="#4fba6f"/>
  </g>
</svg>
