<svg xmlns="http://www.w3.org/2000/svg" width="84.159" height="86.481" viewBox="0 0 84.159 86.481">
  <g id="contacts" transform="translate(-6.874)">
    <g id="Group_20" data-name="Group 20" transform="translate(8.141 1.267)">
      <g id="Group_19" data-name="Group 19">
        <g id="Group_14" data-name="Group 14" transform="translate(67.403 10.924)">
          <path id="Path_153" data-name="Path 153" d="M413.426,339.192h9.026a5.2,5.2,0,0,0,5.2-5.2V318.768H413.426Z" transform="translate(-413.426 -277.116)" fill="#ffd88f"/>
          <path id="Path_154" data-name="Path 154" d="M413.426,257.446h9.026a5.2,5.2,0,0,0,5.2-5.2V237.022H413.426Z" transform="translate(-413.426 -209.178)" fill="#ff7893"/>
          <path id="Path_155" data-name="Path 155" d="M413.426,174.572h9.026a5.2,5.2,0,0,0,5.2-5.2V153.919H413.426Z" transform="translate(-413.426 -140.112)" fill="#59a1a5"/>
          <path id="Path_156" data-name="Path 156" d="M413.426,92.6h9.026a5.2,5.2,0,0,0,5.2-5.2V77.37a5.2,5.2,0,0,0-5.2-5.2h-9.026Z" transform="translate(-413.426 -72.174)" fill="#ff9e5e"/>
        </g>
        <g id="Group_18" data-name="Group 18">
          <path id="Path_157" data-name="Path 157" d="M117.17,91.449H70.645a9.386,9.386,0,0,1-9.386-9.386V16.887A9.386,9.386,0,0,1,70.645,7.5H117.17a9.386,9.386,0,0,1,9.386,9.386V82.062A9.386,9.386,0,0,1,117.17,91.449Z" transform="translate(-53.34 -7.501)" fill="#fff7e8"/>
          <path id="Path_158" data-name="Path 158" d="M359.03,7.5h-6.756a9.386,9.386,0,0,1,9.386,9.386V82.061a9.386,9.386,0,0,1-9.386,9.386h6.756a9.386,9.386,0,0,0,9.386-9.386V16.887A9.386,9.386,0,0,0,359.03,7.5Z" transform="translate(-295.2 -7.5)" fill="#fff1d6"/>
          <g id="Group_15" data-name="Group 15" transform="translate(7.919)">
            <path id="Path_159" data-name="Path 159" d="M70.646,7.5a9.386,9.386,0,0,0-9.387,9.386V82.062a9.386,9.386,0,0,0,9.387,9.386h5.882V7.5Z" transform="translate(-61.259 -7.5)" fill="#59a1a5"/>
          </g>
          <g id="Group_16" data-name="Group 16" transform="translate(0 10.543)">
            <path id="Path_160" data-name="Path 160" d="M26.785,76.889H17.858a3.484,3.484,0,1,1,0-6.968h8.927a3.484,3.484,0,1,1,0,6.968Z" transform="translate(-14.374 -69.921)" fill="#b5e8e0"/>
            <path id="Path_161" data-name="Path 161" d="M26.785,187.191H17.858a3.484,3.484,0,1,1,0-6.968h8.927a3.484,3.484,0,1,1,0,6.968Z" transform="translate(-14.374 -161.592)" fill="#b5e8e0"/>
            <path id="Path_162" data-name="Path 162" d="M26.785,297.493H17.858a3.484,3.484,0,1,1,0-6.968h8.927a3.484,3.484,0,1,1,0,6.968Z" transform="translate(-14.374 -253.263)" fill="#b5e8e0"/>
            <path id="Path_163" data-name="Path 163" d="M26.785,407.8H17.858a3.484,3.484,0,1,1,0-6.968h8.927a3.484,3.484,0,1,1,0,6.968Z" transform="translate(-14.374 -344.935)" fill="#b5e8e0"/>
          </g>
          <g id="Group_17" data-name="Group 17" transform="translate(5.654 10.543)">
            <path id="Path_164" data-name="Path 164" d="M54.606,69.92H47.85a3.484,3.484,0,1,1,0,6.968h6.756a3.484,3.484,0,0,0,0-6.968Z" transform="translate(-47.85 -69.92)" fill="#97dbd1"/>
            <path id="Path_165" data-name="Path 165" d="M54.606,180.223H47.85a3.484,3.484,0,1,1,0,6.968h6.756a3.484,3.484,0,1,0,0-6.968Z" transform="translate(-47.85 -161.592)" fill="#97dbd1"/>
            <path id="Path_166" data-name="Path 166" d="M54.606,290.525H47.85a3.484,3.484,0,1,1,0,6.968h6.756a3.484,3.484,0,0,0,0-6.968Z" transform="translate(-47.85 -253.263)" fill="#97dbd1"/>
            <path id="Path_167" data-name="Path 167" d="M54.606,400.828H47.85a3.484,3.484,0,1,1,0,6.968h6.756a3.484,3.484,0,1,0,0-6.968Z" transform="translate(-47.85 -344.935)" fill="#97dbd1"/>
          </g>
        </g>
      </g>
    </g>
    <g id="Group_21" data-name="Group 21" transform="translate(6.874)">
      <path id="Path_168" data-name="Path 168" d="M84.57,10.924H82.625A10.794,10.794,0,0,0,71.972,0H25.447A10.664,10.664,0,0,0,14.8,10.543H11.625a4.751,4.751,0,0,0,0,9.5h3.169v9.13H11.625a4.751,4.751,0,0,0,0,9.5h3.169v9.13H11.625a4.751,4.751,0,0,0,0,9.5h3.169v9.13H11.625a4.751,4.751,0,0,0,0,9.5H14.8A10.664,10.664,0,0,0,25.447,86.481H71.972A10.8,10.8,0,0,0,82.625,75.534H84.57a6.47,6.47,0,0,0,6.463-6.463V17.386a6.47,6.47,0,0,0-6.463-6.462ZM88.5,55.263a3.934,3.934,0,0,1-3.929,3.929H82.625V47.919H84.57A6.428,6.428,0,0,0,88.5,46.582Zm0-13.808a3.934,3.934,0,0,1-3.929,3.929H82.625v-11.5H84.57a6.43,6.43,0,0,0,3.93-1.337v8.91Zm-3.93-28a3.934,3.934,0,0,1,3.93,3.929V27.419a3.934,3.934,0,0,1-3.93,3.929H82.625V13.458ZM9.408,15.294a2.22,2.22,0,0,1,2.217-2.217h8.927a2.217,2.217,0,1,1,0,4.434H11.625A2.22,2.22,0,0,1,9.408,15.294Zm0,18.631a2.22,2.22,0,0,1,2.217-2.217h8.927a2.217,2.217,0,0,1,0,4.434H11.625A2.22,2.22,0,0,1,9.408,33.925Zm0,18.631a2.22,2.22,0,0,1,2.217-2.217h8.927a2.217,2.217,0,0,1,0,4.434H11.625A2.22,2.22,0,0,1,9.408,52.556Zm0,18.631a2.22,2.22,0,0,1,2.217-2.217h8.927a2.217,2.217,0,0,1,0,4.434H11.625A2.22,2.22,0,0,1,9.408,71.187ZM84.57,73H82.625V71.188a1.267,1.267,0,0,0-2.534,0v4.641a8.129,8.129,0,0,1-8.12,8.119H32.6V18.778a1.267,1.267,0,0,0-2.534,0v65.17H25.447a8.128,8.128,0,0,1-8.117-8.01h3.222a4.751,4.751,0,1,0,0-9.5H17.327v-9.13h3.225a4.751,4.751,0,0,0,0-9.5H17.327v-9.13h3.225a4.751,4.751,0,0,0,0-9.5H17.327v-9.13h3.225a4.751,4.751,0,1,0,0-9.5H17.33a8.128,8.128,0,0,1,8.118-8.01h4.615v9.657a1.267,1.267,0,0,0,2.534,0V2.534H71.972a8.129,8.129,0,0,1,8.12,8.12V64.614a1.267,1.267,0,0,0,2.534,0V61.726h1.946A6.428,6.428,0,0,0,88.5,60.39v8.681A3.934,3.934,0,0,1,84.57,73Z" transform="translate(-6.874)"/>
      <path id="Path_169" data-name="Path 169" d="M224.781,116.695a10.386,10.386,0,1,0-13.365,0,15.862,15.862,0,0,0-9.133,14.332,1.267,1.267,0,0,0,2.534,0,13.31,13.31,0,0,1,9.745-12.8,1.276,1.276,0,0,0,.2-2.368,7.853,7.853,0,1,1,6.669,0,1.276,1.276,0,0,0,.2,2.368,13.31,13.31,0,0,1,9.745,12.8,1.267,1.267,0,0,0,2.534,0,15.862,15.862,0,0,0-9.133-14.332Z" transform="translate(-169.277 -81.75)"/>
      <path id="Path_170" data-name="Path 170" d="M232.835,349.019h-29.1a1.267,1.267,0,0,0,0,2.534h29.1A1.267,1.267,0,0,0,232.835,349.019Z" transform="translate(-169.466 -290.067)"/>
      <path id="Path_171" data-name="Path 171" d="M252.792,398.5H233.876a1.267,1.267,0,0,0,0,2.534h18.916A1.267,1.267,0,0,0,252.792,398.5Z" transform="translate(-194.512 -331.186)"/>
    </g>
  </g>
</svg>
