<svg xmlns="http://www.w3.org/2000/svg" width="185.163" height="185.152" viewBox="0 0 185.163 185.152">
  <g id="curriculum" transform="translate(-0.998 -1)">
    <path id="Path_83" data-name="Path 83" d="M133.4,113.989v55.248H2V31.864L31.864,2H133.4V34.85" transform="translate(1.99 1.986)" fill="#e7e4dd"/>
    <path id="Path_84" data-name="Path 84" d="M125.455,6H137.4V173.237H6V161.291H125.455Z" transform="translate(9.936 9.932)" fill="#d5cec2"/>
    <path id="Path_85" data-name="Path 85" d="M105.7,43.85a11.911,11.911,0,0,0-6.773-10.724A11.868,11.868,0,0,0,83.574,17.773a11.876,11.876,0,0,0-21.448,0A11.868,11.868,0,0,0,46.773,33.126a11.876,11.876,0,0,0,0,21.448A11.868,11.868,0,0,0,62.126,69.927a11.876,11.876,0,0,0,21.448,0A11.868,11.868,0,0,0,98.927,54.574,11.911,11.911,0,0,0,105.7,43.85Z" transform="translate(77.472 19.864)" fill="#c16b3f"/>
    <path id="Path_86" data-name="Path 86" d="M83.574,17.773a11.876,11.876,0,0,0-21.448,0A11.868,11.868,0,0,0,46.773,33.126a11.876,11.876,0,0,0,0,21.448,11.752,11.752,0,0,0,5.274,14.553A50.557,50.557,0,0,0,91.8,19.753c0-.7-.078-1.377-.1-2.07a11.3,11.3,0,0,0-8.12.09Z" transform="translate(77.472 19.864)" fill="#e39854"/>
    <ellipse id="Ellipse_2" data-name="Ellipse 2" cx="18.5" cy="18" rx="18.5" ry="18" transform="translate(131.998 46)" fill="#f2c351"/>
    <path id="Path_87" data-name="Path 87" d="M79.089,26.24A17.908,17.908,0,1,0,59.833,51.553,50.65,50.65,0,0,0,79.089,26.24Z" transform="translate(87.404 29.796)" fill="#f7d881"/>
    <path id="Path_88" data-name="Path 88" d="M31.864,2V31.864H2" transform="translate(1.99 1.986)" fill="#c1c8d1"/>
    <path id="Path_89" data-name="Path 89" d="M70,37.159,60.9,61.4l-5.973-8.959L40,55.423,61.382,30.989c.251-.078.5-.164.744-.257A11.986,11.986,0,0,0,70,37.159Z" transform="translate(77.472 59.059)" fill="#f2c351"/>
    <path id="Path_90" data-name="Path 90" d="M60.569,30.989,81.951,55.423,67.019,52.437,61.047,61.4,51.956,37.159a11.981,11.981,0,0,0,7.866-6.427C60.07,30.825,60.318,30.908,60.569,30.989Z" transform="translate(101.221 59.059)" fill="#f2c351"/>
    <g id="Group_5" data-name="Group 5" transform="translate(18.922 150.315)">
      <path id="Path_91" data-name="Path 91" d="M7,51H108.534v5.97H7Z" transform="translate(-7 -50.999)" fill="#8892a0"/>
    </g>
    <g id="Group_6" data-name="Group 6" transform="translate(18.922 138.37)">
      <path id="Path_92" data-name="Path 92" d="M7,47H108.534v5.97H7Z" transform="translate(-7 -46.999)" fill="#8892a0"/>
    </g>
    <g id="Group_7" data-name="Group 7" transform="translate(18.922 126.424)">
      <path id="Path_93" data-name="Path 93" d="M7,43H84.643v5.97H7Z" transform="translate(-7 -42.999)" fill="#8892a0"/>
    </g>
    <g id="Group_8" data-name="Group 8" transform="translate(18.922 114.479)">
      <path id="Path_94" data-name="Path 94" d="M7,39H84.643v5.97H7Z" transform="translate(-7 -38.999)" fill="#8892a0"/>
    </g>
    <ellipse id="Ellipse_3" data-name="Ellipse 3" cx="9" cy="8.5" rx="9" ry="8.5" transform="translate(69.998 17)" fill="#a8b0bc"/>
    <path id="Path_95" data-name="Path 95" d="M46.891,35.891H23V23.945a11.945,11.945,0,0,1,23.891,0Z" transform="translate(43.704 21.85)" fill="#a8b0bc"/>
    <g id="Group_9" data-name="Group 9" transform="translate(51.769 66.7)">
      <path id="Path_96" data-name="Path 96" d="M18,23H71.751v5.973H18Z" transform="translate(-17.999 -23)" fill="#8892a0"/>
    </g>
    <g id="Group_10" data-name="Group 10" transform="translate(51.769 78.646)">
      <path id="Path_97" data-name="Path 97" d="M18,27H71.751v5.973H18Z" transform="translate(-17.999 -27)" fill="#8892a0"/>
    </g>
    <g id="Group_11" data-name="Group 11" transform="translate(139.249 52.888)">
      <path id="Path_98" data-name="Path 98" d="M55.376,38.16a2.989,2.989,0,0,1-2.111-.875l-5.973-5.973,4.226-4.226L55.131,30.7l9.861-12.325,4.665,3.733L57.711,37.04a2.99,2.99,0,0,1-2.168,1.117C55.487,38.157,55.433,38.16,55.376,38.16Z" transform="translate(-47.292 -18.375)" fill="#78b75b"/>
    </g>
    <path id="Path_99" data-name="Path 99" d="M8,32H37.864V43.945H8Z" transform="translate(13.909 61.577)" fill="#a8b0bc"/>
    <g id="Group_12" data-name="Group 12" transform="translate(0.998 1)">
      <path id="Path_100" data-name="Path 100" d="M7,51H108.533v5.97H7Z" transform="translate(10.922 98.316)"/>
      <path id="Path_101" data-name="Path 101" d="M7,47H108.533v5.97H7Z" transform="translate(10.922 90.371)"/>
      <path id="Path_102" data-name="Path 102" d="M7,43H84.642v5.97H7Z" transform="translate(10.922 82.425)"/>
      <path id="Path_103" data-name="Path 103" d="M7,39H84.645v5.973H7Z" transform="translate(10.922 74.482)"/>
      <path id="Path_104" data-name="Path 104" d="M24.985,52.781H48.873a2.984,2.984,0,0,0,2.986-2.986V37.849a14.925,14.925,0,0,0-6.588-12.378,11.946,11.946,0,1,0-16.682,0A14.931,14.931,0,0,0,22,37.849V49.795A2.984,2.984,0,0,0,24.985,52.781ZM36.931,10.975a5.973,5.973,0,1,1-5.973,5.973A5.976,5.976,0,0,1,36.931,10.975ZM27.972,37.852a8.958,8.958,0,1,1,17.915,0v8.959H27.972Z" transform="translate(40.718 6.943)"/>
      <path id="Path_105" data-name="Path 105" d="M18,23H71.751v5.973H18Z" transform="translate(32.772 42.7)"/>
      <path id="Path_106" data-name="Path 106" d="M18,27H71.751v5.973H18Z" transform="translate(32.772 50.646)"/>
      <path id="Path_107" data-name="Path 107" d="M85.805,35.9a20.9,20.9,0,1,0-20.9,20.9A20.927,20.927,0,0,0,85.805,35.9ZM64.9,50.833A14.93,14.93,0,1,1,79.832,35.9,14.946,14.946,0,0,1,64.9,50.833Z" transform="translate(84.418 26.809)"/>
      <path id="Path_108" data-name="Path 108" d="M168.509,93.192a14.935,14.935,0,0,0,11.671-14.55,14.122,14.122,0,0,0-.284-2.816,14.859,14.859,0,0,0,0-24.231,14.347,14.347,0,0,0,.284-2.816,14.947,14.947,0,0,0-14.932-14.932,14.12,14.12,0,0,0-2.813.287,14.777,14.777,0,0,0-12.116-6.256h0V15.929a2.986,2.986,0,0,0-2.986-2.986h-8.956V3.986A2.986,2.986,0,0,0,135.388,1H33.848a2.988,2.988,0,0,0-2.111.872L1.873,31.736A2.993,2.993,0,0,0,1,33.85V171.223a2.987,2.987,0,0,0,2.986,2.986h8.962v8.956a2.984,2.984,0,0,0,2.986,2.986h131.4a2.984,2.984,0,0,0,2.986-2.986V99.547h0c.3,0,.6-.036.9-.054l8.254,22.01a2.986,2.986,0,0,0,2.452,1.92c.116.009.23.018.343.018a3,3,0,0,0,2.485-1.329l4.862-7.3,12.976,2.6a2.987,2.987,0,0,0,2.834-4.895ZM144.344,18.915V29.147a14.779,14.779,0,0,0-5.97,4.775V18.915ZM30.862,11.2V30.861H11.2ZM6.971,36.833H33.848a2.984,2.984,0,0,0,2.986-2.986V6.973H132.4V34.152a14.952,14.952,0,0,0-11.945,14.63,13.96,13.96,0,0,0,.287,2.819,14.849,14.849,0,0,0,0,24.225,14.149,14.149,0,0,0-.287,2.816,14.943,14.943,0,0,0,11.671,14.55l-16.906,19.319a2.987,2.987,0,0,0,2.834,4.895l12.973-2.6,1.377,2.067v51.357H6.971Zm130.654,77.108-2.738-4.109a3.023,3.023,0,0,0-3.07-1.272l-6.3,1.263,13.543-15.478a14.75,14.75,0,0,0,4.569,3.608ZM18.919,180.176v-5.97H135.388a2.987,2.987,0,0,0,2.986-2.986V123.438a3.254,3.254,0,0,0,.34-.021,2.986,2.986,0,0,0,2.452-1.92l3.175-8.469v67.146H18.919Zm123.364-91.69A2.98,2.98,0,0,0,138.541,87a8.884,8.884,0,0,1-11.506-11.5,2.978,2.978,0,0,0-1.493-3.742,8.892,8.892,0,0,1,0-16.073,2.978,2.978,0,0,0,1.493-3.742,8.884,8.884,0,0,1,11.506-11.5,2.976,2.976,0,0,0,3.742-1.493,8.89,8.89,0,0,1,16.073,0,2.978,2.978,0,0,0,3.742,1.493,8.889,8.889,0,0,1,11.506,11.5,2.978,2.978,0,0,0,1.493,3.742,8.894,8.894,0,0,1,0,16.073,2.978,2.978,0,0,0-1.493,3.742A8.888,8.888,0,0,1,162.1,87a2.986,2.986,0,0,0-3.742,1.493,8.889,8.889,0,0,1-16.073,0Zm26.537,20.08a3.034,3.034,0,0,0-3.07,1.272l-2.738,4.109-6-15.989a14.749,14.749,0,0,0,4.569-3.608l13.546,15.478Z" transform="translate(-0.998 -1)"/>
      <path id="Path_109" data-name="Path 109" d="M64.991,18.375,55.13,30.7l-3.614-3.614-4.226,4.226,5.973,5.973a2.989,2.989,0,0,0,2.111.875c.057,0,.11,0,.167-.006a2.985,2.985,0,0,0,2.168-1.117L69.656,22.1Z" transform="translate(90.957 33.513)"/>
      <path id="Path_110" data-name="Path 110" d="M9.985,48.912H39.846a2.984,2.984,0,0,0,2.986-2.986V33.986A2.984,2.984,0,0,0,39.846,31H9.985A2.984,2.984,0,0,0,7,33.986V45.929A2.983,2.983,0,0,0,9.985,48.912Zm2.986-11.94H36.86v5.97H12.972Z" transform="translate(10.922 58.591)"/>
    </g>
  </g>
</svg>
