<svg xmlns="http://www.w3.org/2000/svg" width="71.315" height="71.312" viewBox="0 0 71.315 71.312">
  <g id="curriculo" transform="translate(0 -0.001)">
    <path id="Path_172" data-name="Path 172" d="M70.873,29.79a4.8,4.8,0,0,0-1.341-1.759l-8.054-7.156L47.67,8.6,39.58,1.412a6.158,6.158,0,0,0-7.845,0L23.644,8.6,9.837,20.876,1.783,28.032A5,5,0,0,0,0,31.819V66.395a4.926,4.926,0,0,0,4.919,4.918H66.4A4.9,4.9,0,0,0,69.7,70.021a4.839,4.839,0,0,0,1.611-3.627V31.819a4.74,4.74,0,0,0-.442-2.029Zm0,0" transform="translate(0 0)" fill="#f29c1f"/>
    <path id="Path_173" data-name="Path 173" d="M73.609,29.79l-9.394,5.951L44.886,47.975l-4.537-3.627a4.918,4.918,0,0,0-6.271.1l-4.119,3.529-17.386-11.8L3.179,29.8a4.71,4.71,0,0,1,1.34-1.77l8.054-7.156L26.381,8.6l8.091-7.193a6.158,6.158,0,0,1,7.845,0L50.407,8.6,64.215,20.876l8.054,7.156a4.8,4.8,0,0,1,1.341,1.759Zm0,0" transform="translate(-2.737)" fill="#f0c419"/>
    <path id="Path_174" data-name="Path 174" d="M122.263,106.833V65.459a3.689,3.689,0,0,0-3.688-3.689H74.31a3.689,3.689,0,0,0-3.689,3.689v41.805Zm0,0" transform="translate(-60.785 -53.165)" fill="#e6e7e8"/>
    <path id="Path_175" data-name="Path 175" d="M115.988,105.91H133.2a1.229,1.229,0,0,1,1.23,1.23v17.214a1.229,1.229,0,0,1-1.23,1.229H115.988a1.229,1.229,0,0,1-1.23-1.229V107.14A1.229,1.229,0,0,1,115.988,105.91Zm0,0" transform="translate(-98.774 -91.157)" fill="#67b9cc"/>
    <path id="Path_176" data-name="Path 176" d="M159.907,111.443c0-3.056-2.2-5.533-4.919-5.533s-4.918,2.477-4.918,5.533,2.2,5.533,4.918,5.533,4.919-2.477,4.919-5.533Zm0,0" transform="translate(-129.167 -91.158)" fill="#fdd7ad"/>
    <g id="Group_22" data-name="Group 22" transform="translate(40.576 13.523)">
      <path id="Path_177" data-name="Path 177" d="M307.3,99.541H292.541a1.23,1.23,0,0,1,0-2.459H307.3a1.23,1.23,0,0,1,0,2.459Zm0,0" transform="translate(-291.312 -97.082)" fill="#5e5f62"/>
      <path id="Path_178" data-name="Path 178" d="M299.919,143.678h-7.378a1.23,1.23,0,0,1,0-2.459h7.378a1.23,1.23,0,0,1,0,2.459Zm0,0" transform="translate(-291.312 -135.071)" fill="#5e5f62"/>
      <path id="Path_179" data-name="Path 179" d="M383.275,143.678h-2.459a1.23,1.23,0,0,1,0-2.459h2.459a1.23,1.23,0,0,1,0,2.459Zm0,0" transform="translate(-367.29 -135.071)" fill="#5e5f62"/>
      <path id="Path_180" data-name="Path 180" d="M307.3,178.99H292.541a1.229,1.229,0,0,1,0-2.459H307.3a1.229,1.229,0,1,1,0,2.459Zm0,0" transform="translate(-291.312 -165.465)" fill="#5e5f62"/>
      <path id="Path_181" data-name="Path 181" d="M296.23,214.3h-3.689a1.23,1.23,0,0,1,0-2.459h3.689a1.23,1.23,0,1,1,0,2.459Zm0,0" transform="translate(-291.312 -195.855)" fill="#5e5f62"/>
      <path id="Path_182" data-name="Path 182" d="M368.078,214.3h-4.919a1.23,1.23,0,1,1,0-2.459h4.919a1.23,1.23,0,1,1,0,2.459Zm0,0" transform="translate(-352.093 -195.855)" fill="#5e5f62"/>
    </g>
    <path id="Path_183" data-name="Path 183" d="M331.775,215.9v34.575a4.838,4.838,0,0,1-1.611,3.627l-27.555-22.046,19.329-12.234,9.394-5.951a4.741,4.741,0,0,1,.442,2.029Zm0,0" transform="translate(-260.46 -184.081)" fill="#f29c1f"/>
    <path id="Path_184" data-name="Path 184" d="M79.354,337.385a4.9,4.9,0,0,1-3.308,1.291H14.568a4.918,4.918,0,0,1-3.357-1.328l25.661-22.01,4.119-3.529a4.918,4.918,0,0,1,6.271-.1l4.537,3.627Zm0,0" transform="translate(-9.65 -267.363)" fill="#e57e25"/>
    <path id="Path_185" data-name="Path 185" d="M27.222,232.131,1.561,254.141A4.911,4.911,0,0,1,0,250.55V215.975a4.73,4.73,0,0,1,.443-2.017l9.394,6.369Zm0,0" transform="translate(0 -184.156)" fill="#f29c1f"/>
    <path id="Path_186" data-name="Path 186" d="M134.431,185.032v2.459a1.229,1.229,0,0,1-1.23,1.229H115.987a1.229,1.229,0,0,1-1.23-1.229v-2.459c0-2.459,2.459-2.459,4.919-2.459,1.525,0,2.1-1.881,2.324-3.308a4.391,4.391,0,0,0,5.188,0c.221,1.427.8,3.308,2.324,3.308,2.459,0,4.918,0,4.918,2.459Zm0,0" transform="translate(-98.774 -154.295)" fill="#f09372"/>
    <path id="Path_187" data-name="Path 187" d="M134.431,205.548v2.459a1.229,1.229,0,0,1-1.23,1.229H115.987a1.229,1.229,0,0,1-1.23-1.229v-2.459c0-1.967,1.586-2.361,3.48-2.447a9.481,9.481,0,0,0,12.714,0c1.893.086,3.479.479,3.479,2.447Zm0,0" transform="translate(-98.774 -174.811)" fill="#cc4b4c"/>
  </g>
</svg>
