<svg xmlns="http://www.w3.org/2000/svg" width="78.503" height="93.279" viewBox="0 0 78.503 93.279">
  <g id="prancheta" transform="translate(-5.323 -0.3)">
    <path id="Path_117" data-name="Path 117" d="M60.1,8.979h14.58a3.284,3.284,0,0,1,3.283,3.284V86.708a3.284,3.284,0,0,1-3.283,3.283H12.106a3.284,3.284,0,0,1-3.283-3.284V12.262a3.284,3.284,0,0,1,3.283-3.284H26.623" transform="translate(1.178 2.92)" fill="#e7aa6c"/>
    <path id="Path_118" data-name="Path 118" d="M77.973,12.257V86.7a3.285,3.285,0,0,1-3.288,3.288H12.109A3.285,3.285,0,0,1,8.821,86.7v-.668H70.675a3.283,3.283,0,0,0,3.288-3.275V8.982h.722a3.283,3.283,0,0,1,3.289,3.275Z" transform="translate(1.177 2.922)" fill="#d09865"/>
    <path id="Path_119" data-name="Path 119" d="M59.734,14.32h9.3V81.056H14.163V14.32H23.4" transform="translate(2.975 4.718)" fill="#eeefee"/>
    <path id="Path_120" data-name="Path 120" d="M69.2,81.891H14.331a.668.668,0,0,1-.668-.668V14.488a.668.668,0,0,1,.668-.668h9.235a.668.668,0,0,1,0,1.337H15v65.4H68.536v-65.4H59.9a.668.668,0,0,1,0-1.337h9.3a.668.668,0,0,1,.668.668V81.223A.668.668,0,0,1,69.2,81.891Z" transform="translate(2.807 4.55)" fill="#323c6b"/>
    <path id="Path_121" data-name="Path 121" d="M59.537,50.3H20.109a.668.668,0,0,1,0-1.337H59.537a.668.668,0,1,1,0,1.337Z" transform="translate(4.751 16.378)" fill="#323c6b"/>
    <path id="Path_122" data-name="Path 122" d="M59.537,57.054H20.109a.668.668,0,0,1,0-1.337H59.537a.668.668,0,1,1,0,1.337Z" transform="translate(4.751 18.65)" fill="#323c6b"/>
    <path id="Path_123" data-name="Path 123" d="M60.1,8.979h14.58a3.284,3.284,0,0,1,3.283,3.284V86.708a3.284,3.284,0,0,1-3.283,3.283H12.106a3.284,3.284,0,0,1-3.283-3.284V12.262a3.284,3.284,0,0,1,3.283-3.284H26.623" transform="translate(1.178 2.92)" fill="#e7aa6c"/>
    <path id="Path_124" data-name="Path 124" d="M77.973,12.257V86.7a3.285,3.285,0,0,1-3.288,3.288H12.109A3.285,3.285,0,0,1,8.821,86.7v-.668H70.675a3.283,3.283,0,0,0,3.288-3.275V8.982h.722a3.283,3.283,0,0,1,3.289,3.275Z" transform="translate(1.177 2.922)" fill="#d09865"/>
    <path id="Path_125" data-name="Path 125" d="M59.734,14.32h9.3V81.056H14.163V14.32H23.4" transform="translate(2.975 4.718)" fill="#eeefee"/>
    <path id="Path_126" data-name="Path 126" d="M52.108,14.322h4.161V81.055H52.108Z" transform="translate(15.745 4.719)" fill="#e1e6e9"/>
    <path id="Path_127" data-name="Path 127" d="M59.537,50.3H20.109a.668.668,0,0,1,0-1.337H59.537a.668.668,0,1,1,0,1.337Z" transform="translate(4.751 16.378)" fill="#323c6b"/>
    <path id="Path_128" data-name="Path 128" d="M59.537,57.054H20.109a.668.668,0,0,1,0-1.337H59.537a.668.668,0,1,1,0,1.337Z" transform="translate(4.751 18.65)" fill="#323c6b"/>
    <circle id="Ellipse_4" data-name="Ellipse 4" cx="6.537" cy="6.537" r="6.537" transform="translate(38.039 30.943)" fill="#89c5cd"/>
    <path id="Path_129" data-name="Path 129" d="M53.044,46.565H23.728A13.015,13.015,0,0,1,25.6,39.141,10.771,10.771,0,0,1,33.771,34.3a6.9,6.9,0,0,0,9.23,0,10.771,10.771,0,0,1,8.169,4.841A13.015,13.015,0,0,1,53.044,46.565Z" transform="translate(6.188 11.442)" fill="#89c5cd"/>
    <path id="Path_130" data-name="Path 130" d="M42.714,29.767a6.509,6.509,0,0,1-2.793,5.346,6.415,6.415,0,0,0,.628-2.767,6.537,6.537,0,0,0-10.278-5.36,6.532,6.532,0,0,1,12.443,2.78Z" transform="translate(8.396 7.718)" fill="#6eaaad"/>
    <path id="Path_131" data-name="Path 131" d="M48.656,46.571H45.849a12.533,12.533,0,0,0-1.871-6.389,10.531,10.531,0,0,0-7.217-4.691,6.816,6.816,0,0,0,1.844-1.19,10.775,10.775,0,0,1,8.18,4.838,13.107,13.107,0,0,1,1.871,7.431Z" transform="translate(10.58 11.443)" fill="#6eaaad"/>
    <g id="Group_13" data-name="Group 13" transform="translate(5.323 7.5)">
      <path id="Path_132" data-name="Path 132" d="M63.727,17.264a.668.668,0,0,1-.668-.668V15.76a.668.668,0,0,1,1.337,0V16.6A.668.668,0,0,1,63.727,17.264Z" transform="translate(14.107 -2.522)" fill="#323c6b"/>
      <path id="Path_133" data-name="Path 133" d="M5.991,64.651a.668.668,0,0,1-.668-.668V51.843a.668.668,0,1,1,1.337,0v12.14A.668.668,0,0,1,5.991,64.651Z" transform="translate(-5.323 9.621)" fill="#323c6b"/>
      <path id="Path_134" data-name="Path 134" d="M5.991,50.3a.668.668,0,0,1-.668-.668V48.8a.668.668,0,1,1,1.337,0v.835A.668.668,0,0,1,5.991,50.3Z" transform="translate(-5.323 8.597)" fill="#323c6b"/>
      <path id="Path_135" data-name="Path 135" d="M65.089,16.53a.668.668,0,0,1-.668-.668V13.371A6.625,6.625,0,0,0,59.523,7a.668.668,0,1,1,.349-1.29,7.966,7.966,0,0,1,5.881,7.656v2.491a.668.668,0,0,1-.663.668Z" transform="translate(12.745 -5.687)" fill="#323c6b"/>
      <path id="Path_136" data-name="Path 136" d="M74.852,90.827H12.274a3.955,3.955,0,0,1-3.951-3.952V12.43a3.956,3.956,0,0,1,3.951-3.952H26.791a.668.668,0,0,1,0,1.337H12.274A2.618,2.618,0,0,0,9.66,12.43V86.875a2.618,2.618,0,0,0,2.614,2.616H74.852a2.618,2.618,0,0,0,2.616-2.616V12.43a2.618,2.618,0,0,0-2.616-2.614H60.272a.668.668,0,1,1,0-1.337h14.58A3.957,3.957,0,0,1,78.8,12.431V86.877A3.956,3.956,0,0,1,74.852,90.827Z" transform="translate(-4.313 -4.748)" fill="#323c6b"/>
    </g>
    <path id="Path_137" data-name="Path 137" d="M33.474,6.732V8.579H26.347a3.625,3.625,0,0,0-3.532,2.814L20.687,22h37.44l-2.138-10.6a3.625,3.625,0,0,0-3.528-2.815H45.335V6.732a5.931,5.931,0,1,0-11.862,0Z" transform="translate(5.171 0.168)" fill="#9297ab"/>
    <path id="Path_138" data-name="Path 138" d="M41,6.737V8.581H37.995V6.737A5.938,5.938,0,0,0,33.571,1a5.543,5.543,0,0,1,1.5-.2A5.938,5.938,0,0,1,41,6.737Z" transform="translate(9.507 0.168)" fill="#84879c"/>
    <path id="Path_139" data-name="Path 139" d="M50.872,20.041H47.865L45.739,9.429a3.618,3.618,0,0,0-3.528-2.807h3.007a3.618,3.618,0,0,1,3.528,2.807Z" transform="translate(12.414 2.128)" fill="#84879c"/>
    <path id="Path_140" data-name="Path 140" d="M41,6.737V8.581H37.995V6.737A5.938,5.938,0,0,0,33.571,1a5.543,5.543,0,0,1,1.5-.2A5.938,5.938,0,0,1,41,6.737Z" transform="translate(9.507 0.168)" fill="#84879c"/>
    <path id="Path_141" data-name="Path 141" d="M50.872,20.041H47.865L45.739,9.429a3.618,3.618,0,0,0-3.528-2.807h3.007a3.618,3.618,0,0,1,3.528,2.807Z" transform="translate(12.414 2.128)" fill="#84879c"/>
    <circle id="Ellipse_5" data-name="Ellipse 5" cx="2.273" cy="2.273" r="2.273" transform="translate(42.301 4.136)" fill="#fff"/>
    <path id="Path_142" data-name="Path 142" d="M35.431,8.552a2.94,2.94,0,1,1,2.94-2.94A2.94,2.94,0,0,1,35.431,8.552Zm0-4.544a1.6,1.6,0,1,0,1.6,1.6,1.6,1.6,0,0,0-1.6-1.6Z" transform="translate(9.143 0.798)" fill="#323c6b"/>
    <path id="Path_143" data-name="Path 143" d="M58.3,22.834H20.856a.668.668,0,0,1-.656-.8l2.128-10.6a4.277,4.277,0,0,1,4.189-3.349h6.457V6.9a6.6,6.6,0,1,1,13.2,0V8.079h6.458a4.277,4.277,0,0,1,4.185,3.333l2.132,10.623a.668.668,0,0,1-.656.8ZM21.675,21.5h35.8l-1.967-9.8a2.94,2.94,0,0,0-2.878-2.272H45.5a.668.668,0,0,1-.668-.668V6.9a5.263,5.263,0,1,0-10.526,0V8.747a.668.668,0,0,1-.668.668H26.516a2.94,2.94,0,0,0-2.882,2.3Z" transform="translate(5.002)" fill="#323c6b"/>
    <path id="Path_144" data-name="Path 144" d="M69.2,81.891H14.331a.668.668,0,0,1-.668-.668V14.488a.668.668,0,0,1,.668-.668h9.235a.668.668,0,0,1,0,1.337H15v65.4H68.536v-65.4H59.9a.668.668,0,0,1,0-1.337h9.3a.668.668,0,0,1,.668.668V81.223A.668.668,0,0,1,69.2,81.891Z" transform="translate(2.807 4.55)" fill="#323c6b"/>
    <path id="Path_145" data-name="Path 145" d="M36.5,37.136a7.2,7.2,0,1,1,7.205-7.2A7.2,7.2,0,0,1,36.5,37.136Zm0-13.071a5.867,5.867,0,1,0,5.869,5.868A5.867,5.867,0,0,0,36.5,24.065Z" transform="translate(8.07 7.548)" fill="#323c6b"/>
    <path id="Path_146" data-name="Path 146" d="M53.212,47.4H23.9a.668.668,0,0,1-.668-.65,13.717,13.717,0,0,1,1.978-7.8,11.411,11.411,0,0,1,8.654-5.15.668.668,0,0,1,.524.166,6.387,6.387,0,0,0,8.337,0,.668.668,0,0,1,.521-.166A11.423,11.423,0,0,1,51.9,38.945a13.73,13.73,0,0,1,1.978,7.8A.668.668,0,0,1,53.212,47.4ZM24.56,46.067H52.549a12.169,12.169,0,0,0-1.775-6.4,10.052,10.052,0,0,0-7.4-4.5,7.752,7.752,0,0,1-9.65,0,10.055,10.055,0,0,0-7.4,4.5,12.153,12.153,0,0,0-1.771,6.4Z" transform="translate(6.02 11.273)" fill="#323c6b"/>
    <path id="Path_147" data-name="Path 147" d="M11.942,32.1a.92.92,0,0,1-.936-.847v-.589a.909.909,0,0,1,.91-.859.862.862,0,0,1,.871.847v.588a.854.854,0,0,1-.846.861Z" transform="translate(1.913 9.929)" fill="#fff"/>
    <path id="Path_148" data-name="Path 148" d="M11.9,31.679a.886.886,0,0,1-.9-.847v-10.6a.854.854,0,0,1,.847-.861.92.92,0,0,1,.936.847v10.6a.887.887,0,0,1-.886.861Z" transform="translate(1.913 6.419)" fill="#fff"/>
  </g>
</svg>
