<svg xmlns="http://www.w3.org/2000/svg" width="170.308" height="148.95" viewBox="0 0 170.308 148.95">
  <g id="programmer" transform="translate(-1.404 -9)">
    <rect id="Rectangle_7" data-name="Rectangle 7" width="154.571" height="134.899" rx="4" transform="translate(2.794 10.405)" fill="#d4fbff"/>
    <path id="Path_58" data-name="Path 58" d="M45.7,36.81H36.132a1.405,1.405,0,1,1,0-2.81H45.7a1.405,1.405,0,1,1,0,2.81Z" transform="translate(13.502 10.13)" fill="#fa759e"/>
    <path id="Path_59" data-name="Path 59" d="M36.953,36.81H13.3a1.405,1.405,0,1,1,0-2.81H36.953a1.405,1.405,0,0,1,0,2.81Z" transform="translate(4.25 10.13)" fill="#fa759e"/>
    <path id="Path_60" data-name="Path 60" d="M47.117,71.81H32.632a1.405,1.405,0,1,1,0-2.81H47.117a1.405,1.405,0,1,1,0,2.81Z" transform="translate(12.084 24.312)" fill="#fa759e"/>
    <path id="Path_61" data-name="Path 61" d="M34.845,71.81H13.3a1.405,1.405,0,1,1,0-2.81H34.845a1.405,1.405,0,1,1,0,2.81Z" transform="translate(4.25 24.312)" fill="#fa759e"/>
    <path id="Path_62" data-name="Path 62" d="M48.945,92.81H28.12a1.405,1.405,0,1,1,0-2.81H48.945a1.405,1.405,0,1,1,0,2.81Z" transform="translate(10.256 32.821)" fill="#fa759e"/>
    <path id="Path_63" data-name="Path 63" d="M24.073,92.81H13.3a1.405,1.405,0,1,1,0-2.81H24.073a1.405,1.405,0,1,1,0,2.81Z" transform="translate(4.25 32.821)" fill="#fa759e"/>
    <path id="Path_64" data-name="Path 64" d="M151.343,104.621H8.014A5.621,5.621,0,0,1,2.393,99v4.216a5.621,5.621,0,0,0,5.621,5.621h143.33a5.621,5.621,0,0,0,5.621-5.621V99A5.621,5.621,0,0,1,151.343,104.621Z" transform="translate(0.401 36.467)" fill="#fff"/>
    <path id="Path_65" data-name="Path 65" d="M151.343,10H8.014a5.621,5.621,0,0,0-5.621,5.621V30.375H156.964V15.621A5.621,5.621,0,0,0,151.343,10Z" transform="translate(0.401 0.405)" fill="#0089ef"/>
    <path id="Path_66" data-name="Path 66" d="M92.006,15.083a3.28,3.28,0,1,0,3.278,3.279,3.28,3.28,0,0,0-3.278-3.279Z" transform="translate(35.382 2.465)" fill="#fff"/>
    <path id="Path_67" data-name="Path 67" d="M99.006,15.083a3.28,3.28,0,1,0,3.278,3.279,3.28,3.28,0,0,0-3.278-3.279Z" transform="translate(38.218 2.465)" fill="#d4fbff"/>
    <path id="Path_68" data-name="Path 68" d="M106.006,15.083a3.28,3.28,0,1,0,3.28,3.278,3.28,3.28,0,0,0-3.28-3.278Z" transform="translate(41.055 2.465)" fill="#fa759e"/>
    <path id="Path_69" data-name="Path 69" d="M141.548,102.992V95.735a2.019,2.019,0,0,0-2.021-2.019h-4.875a28.087,28.087,0,0,0-4.117-9.923l3.457-3.457a2.018,2.018,0,0,0,0-2.857l-5.129-5.13a2.021,2.021,0,0,0-2.858,0l-3.457,3.457a28.077,28.077,0,0,0-9.929-4.114V66.807a2.021,2.021,0,0,0-2.021-2.021h-7.255a2.021,2.021,0,0,0-2.021,2.021v4.884A28.067,28.067,0,0,0,91.4,75.807L87.944,72.35a2.021,2.021,0,0,0-2.858,0l-5.13,5.13a2.021,2.021,0,0,0,0,2.857l3.457,3.457A28.1,28.1,0,0,0,79.3,93.718H74.414a2.019,2.019,0,0,0-2.021,2.019v7.256a2.019,2.019,0,0,0,2.021,2.019H79.3a28.1,28.1,0,0,0,4.116,9.923l-3.457,3.457a2.021,2.021,0,0,0,0,2.857l5.13,5.13a2.021,2.021,0,0,0,2.858,0l3.457-3.457a28.041,28.041,0,0,0,9.922,4.116v4.883a2.021,2.021,0,0,0,2.021,2.019H110.6a2.021,2.021,0,0,0,2.021-2.021v-4.883a28.051,28.051,0,0,0,9.922-4.116L126,126.378a2.021,2.021,0,0,0,2.858,0l5.129-5.13a2.018,2.018,0,0,0,0-2.857l-3.457-3.457a28.087,28.087,0,0,0,4.117-9.923h4.882a2.019,2.019,0,0,0,2.021-2.019Zm-34.578,12.9A16.531,16.531,0,1,1,123.5,99.363a16.53,16.53,0,0,1-16.532,16.531Z" transform="translate(28.764 22.604)" fill="#fa759e"/>
    <g id="Group_4" data-name="Group 4" transform="translate(1.404 9)">
      <path id="Path_70" data-name="Path 70" d="M52.631,43.81h42.59a1.405,1.405,0,1,0,0-2.81H52.631a1.405,1.405,0,0,0,0,2.81Z" transform="translate(18.784 3.966)" fill="#3a2c60"/>
      <path id="Path_71" data-name="Path 71" d="M20.3,43.81H55.662a1.405,1.405,0,1,0,0-2.81H20.3a1.405,1.405,0,1,0,0,2.81Z" transform="translate(5.683 3.966)" fill="#3a2c60"/>
      <path id="Path_72" data-name="Path 72" d="M37.315,49.405A1.405,1.405,0,0,0,38.72,50.81h76.19a1.405,1.405,0,1,0,0-2.81H38.72a1.405,1.405,0,0,0-1.405,1.405Z" transform="translate(13.147 6.803)" fill="#3a2c60"/>
      <path id="Path_73" data-name="Path 73" d="M20.3,50.81h17.33a1.405,1.405,0,1,0,0-2.81H20.3a1.405,1.405,0,1,0,0,2.81Z" transform="translate(5.683 6.803)" fill="#3a2c60"/>
      <path id="Path_74" data-name="Path 74" d="M20.3,57.81H122.374a1.405,1.405,0,1,0,0-2.81H20.3a1.405,1.405,0,1,0,0,2.81Z" transform="translate(5.683 9.639)" fill="#3a2c60"/>
      <path id="Path_75" data-name="Path 75" d="M89.752,62H73.065a1.405,1.405,0,0,0,0,2.81H89.752a1.405,1.405,0,1,0,0-2.81Z" transform="translate(27.063 12.475)" fill="#3a2c60"/>
      <path id="Path_76" data-name="Path 76" d="M20.3,64.81H87.4a1.405,1.405,0,0,0,0-2.81H20.3a1.405,1.405,0,1,0,0,2.81Z" transform="translate(5.683 12.475)" fill="#3a2c60"/>
      <path id="Path_77" data-name="Path 77" d="M75.185,76H60.465a1.405,1.405,0,1,0,0,2.81H75.185a1.405,1.405,0,0,0,0-2.81Z" transform="translate(21.958 18.148)" fill="#3a2c60"/>
      <path id="Path_78" data-name="Path 78" d="M20.3,78.81H68.906a1.405,1.405,0,1,0,0-2.81H20.3a1.405,1.405,0,1,0,0,2.81Z" transform="translate(5.683 18.148)" fill="#3a2c60"/>
      <path id="Path_79" data-name="Path 79" d="M81.623,83H20.3a1.405,1.405,0,1,0,0,2.81H81.623a1.405,1.405,0,1,0,0-2.81Z" transform="translate(5.683 20.984)" fill="#3a2c60"/>
      <path id="Path_80" data-name="Path 80" d="M67.3,26.31h12.3a1.405,1.405,0,0,0,0-2.81H67.3a1.405,1.405,0,1,0,0,2.81Z" transform="translate(24.727 -3.125)" fill="#3a2c60"/>
      <path id="Path_81" data-name="Path 81" d="M168.292,114.915h-3.75a29.263,29.263,0,0,0-3.453-8.32l2.67-2.66a3.43,3.43,0,0,0,0-4.847l-4.973-4.972V16.026A7.034,7.034,0,0,0,151.76,9H8.43A7.034,7.034,0,0,0,1.4,16.026V139.683a7.034,7.034,0,0,0,7.026,7.026H109.6l3.267,3.267a3.427,3.427,0,0,0,4.844,0l2.67-2.66a29.311,29.311,0,0,0,8.319,3.453v3.756a3.43,3.43,0,0,0,3.4,3.426h7.255a3.43,3.43,0,0,0,3.426-3.426v-3.756a29.368,29.368,0,0,0,8.32-3.453l2.66,2.66a3.427,3.427,0,0,0,4.844,0l5.132-5.129a3.429,3.429,0,0,0,0-4.845l-2.67-2.661a29.263,29.263,0,0,0,3.453-8.32h3.758a3.43,3.43,0,0,0,3.427-3.424v-7.256a3.43,3.43,0,0,0-3.42-3.424ZM4.2,139.683V32.186H86.637a1.405,1.405,0,1,0,0-2.81H4.2V16.026A4.216,4.216,0,0,1,8.415,11.81h143.33a4.216,4.216,0,0,1,4.216,4.216V29.375H112.774a1.405,1.405,0,1,0,0,2.81h43.187V92.979a3.4,3.4,0,0,0-2.192.984l-2.66,2.66a29.3,29.3,0,0,0-8.32-3.451V89.412a3.43,3.43,0,0,0-3.426-3.427h-7.255a3.43,3.43,0,0,0-3.426,3.427v3.759a29.259,29.259,0,0,0-8.319,3.451l-2.67-2.66a3.427,3.427,0,0,0-4.844,0l-5.129,5.129a3.429,3.429,0,0,0,0,4.847l2.66,2.66a29.3,29.3,0,0,0-3.453,8.32h-3.75a3.43,3.43,0,0,0-3.424,3.424V125.6a3.43,3.43,0,0,0,3.424,3.424h3.757a29.287,29.287,0,0,0,3.453,8.32L107.728,140a3.415,3.415,0,0,0-.659,3.894H8.415A4.216,4.216,0,0,1,4.2,139.683ZM168.909,125.6a.617.617,0,0,1-.617.614h-4.875a1.405,1.405,0,0,0-1.379,1.124,26.513,26.513,0,0,1-3.911,9.426,1.405,1.405,0,0,0,.178,1.771l3.458,3.457a.617.617,0,0,1,0,.871l-5.132,5.129a.617.617,0,0,1-.87,0l-3.457-3.457a1.405,1.405,0,0,0-1.769-.178,26.607,26.607,0,0,1-9.426,3.912,1.405,1.405,0,0,0-1.124,1.377v4.882a.617.617,0,0,1-.615.615h-7.263a.615.615,0,0,1-.615-.615v-4.882a1.405,1.405,0,0,0-1.124-1.377,26.586,26.586,0,0,1-9.426-3.912,1.405,1.405,0,0,0-1.769.178l-3.458,3.457a.617.617,0,0,1-.87,0l-5.129-5.129a.617.617,0,0,1,0-.871l3.457-3.457a1.405,1.405,0,0,0,.178-1.771,26.516,26.516,0,0,1-3.912-9.426,1.405,1.405,0,0,0-1.377-1.124h-4.884a.614.614,0,0,1-.614-.614v-7.256a.614.614,0,0,1,.614-.614h4.883a1.405,1.405,0,0,0,1.377-1.124,26.575,26.575,0,0,1,3.912-9.427,1.405,1.405,0,0,0-.178-1.769l-3.457-3.457a.617.617,0,0,1,0-.871l5.129-5.129a.617.617,0,0,1,.87,0l3.458,3.457a1.405,1.405,0,0,0,1.769.178,26.558,26.558,0,0,1,9.426-3.911,1.405,1.405,0,0,0,1.124-1.379V89.412a.615.615,0,0,1,.615-.617h7.255a.617.617,0,0,1,.615.617V94.3a1.405,1.405,0,0,0,1.124,1.379,26.558,26.558,0,0,1,9.426,3.909A1.405,1.405,0,0,0,152.3,99.4l3.457-3.457a.617.617,0,0,1,.87,0l5.132,5.129a.617.617,0,0,1,0,.871L158.3,105.4a1.405,1.405,0,0,0-.178,1.771,26.513,26.513,0,0,1,3.911,9.426,1.405,1.405,0,0,0,1.378,1.124h4.882a.617.617,0,0,1,.617.614Z" transform="translate(-1.404 -9)" fill="#3a2c60"/>
      <path id="Path_82" data-name="Path 82" d="M102.171,76.629a17.936,17.936,0,1,0,17.937,17.937,17.936,17.936,0,0,0-17.937-17.937Zm0,33.061A15.125,15.125,0,1,1,117.3,94.565a15.125,15.125,0,0,1-15.127,15.125Z" transform="translate(32.159 18.403)" fill="#3a2c60"/>
    </g>
  </g>
</svg>
